<svg width="24" height="24" viewBox="0 0 24 24" fill="none" xmlns="http://www.w3.org/2000/svg">
<g id="communication/chatbox-ellipses">
<path id="Vector" d="M19.125 2.99658H4.87495C4.17937 2.99856 3.51284 3.27576 3.02098 3.76761C2.52913 4.25947 2.25193 4.926 2.24995 5.62158V14.6216C2.25193 15.3172 2.52913 15.9837 3.02098 16.4756C3.51284 16.9674 4.17937 17.2446 4.87495 17.2466H6.74995V20.9966L11.1431 17.3338C11.2105 17.2774 11.2957 17.2466 11.3835 17.2466H19.125C19.8205 17.2446 20.4871 16.9674 20.9789 16.4756C21.4708 15.9837 21.748 15.3172 21.75 14.6216V5.62158C21.748 4.926 21.4708 4.25947 20.9789 3.76761C20.4871 3.27576 19.8205 2.99856 19.125 2.99658V2.99658Z" stroke="#B553FF" stroke-width="1.5" stroke-linejoin="round"/>
<path id="Vector_2" d="M8.47496 10.1216C8.47496 10.6601 8.03844 11.0966 7.49996 11.0966C6.96148 11.0966 6.52496 10.6601 6.52496 10.1216C6.52496 9.5831 6.96148 9.14658 7.49996 9.14658C8.03844 9.14658 8.47496 9.5831 8.47496 10.1216Z" stroke="#B553FF" stroke-width="1.05"/>
<path id="Vector_3" d="M12.975 10.1216C12.975 10.6601 12.5385 11.0966 12 11.0966C11.4615 11.0966 11.025 10.6601 11.025 10.1216C11.025 9.5831 11.4615 9.14658 12 9.14658C12.5385 9.14658 12.975 9.5831 12.975 10.1216Z" stroke="#B553FF" stroke-width="1.05"/>
<path id="Vector_4" d="M17.475 10.1216C17.475 10.6601 17.0385 11.0966 16.5 11.0966C15.9615 11.0966 15.525 10.6601 15.525 10.1216C15.525 9.5831 15.9615 9.14658 16.5 9.14658C17.0385 9.14658 17.475 9.5831 17.475 10.1216Z" stroke="#B553FF" stroke-width="1.05"/>
</g>
</svg>
