<svg width="24" height="24" viewBox="0 0 24 24" fill="none" xmlns="http://www.w3.org/2000/svg">
<g id="objects/folder">
<path id="Vector" d="M1.50001 9.00147H22.5M20.625 20.2515H3.37501C2.87773 20.2515 2.40081 20.0539 2.04918 19.7023C1.69755 19.3507 1.50001 18.8737 1.50001 18.3765V5.62647C1.50001 5.12918 1.69755 4.65227 2.04918 4.30064C2.40081 3.94901 2.87773 3.75146 3.37501 3.75146H6.93235C7.30257 3.75147 7.66449 3.86108 7.97251 4.06646L9.27751 4.93647C9.58553 5.14185 9.94745 5.25146 10.3177 5.25147H20.625C21.1223 5.25147 21.5992 5.44901 21.9508 5.80064C22.3025 6.15227 22.5 6.62918 22.5 7.12647V18.3765C22.5 18.8737 22.3025 19.3507 21.9508 19.7023C21.5992 20.0539 21.1223 20.2515 20.625 20.2515Z" stroke="#B553FF" stroke-width="1.5" stroke-linecap="round" stroke-linejoin="round"/>
</g>
</svg>
