<?xml version="1.0" encoding="UTF-8"?>
<svg id="Layer_1" xmlns="http://www.w3.org/2000/svg" version="1.1" viewBox="0 0 24 21">
  <!-- Generator: Adobe Illustrator 29.4.0, SVG Export Plug-In . SVG Version: 2.1.0 Build 152)  -->
  <defs>
    <style>
      .st0 {
        fill: #b553ff;
      }
    </style>
  </defs>
  <path class="st0" d="M.8,1.1C.8.5,1.3,0,1.9,0h1.5c.6,0,1.1.5,1.1,1.1v5.6h.8c.6,0,1.1.5,1.1,1.1s-.5,1.1-1.1,1.1H1.5c-.6,0-1.1-.5-1.1-1.1s.5-1.1,1.1-1.1h.8V2.2h-.4c-.6,0-1.1-.5-1.1-1.1ZM3.8,14.5c-.3-.3-.9-.3-1.1,0l-.5.7c-.4.5-1.1.6-1.6.3-.5-.4-.6-1.1-.3-1.6l.5-.7c1.1-1.6,3.4-1.7,4.7-.2,1,1.1,1,2.9,0,4l-1.7,1.8h1.6c.6,0,1.1.5,1.1,1.1s-.5,1.1-1.1,1.1H1.1c-.5,0-.9-.3-1-.7-.2-.4,0-.9.2-1.2l3.4-3.7c.3-.3.3-.7,0-1h0ZM10.3,1.5h12.2c.8,0,1.5.7,1.5,1.5s-.7,1.5-1.5,1.5h-12.2c-.8,0-1.5-.7-1.5-1.5s.7-1.5,1.5-1.5ZM10.3,9h12.2c.8,0,1.5.7,1.5,1.5s-.7,1.5-1.5,1.5h-12.2c-.8,0-1.5-.7-1.5-1.5s.7-1.5,1.5-1.5ZM10.3,16.5h12.2c.8,0,1.5.7,1.5,1.5s-.7,1.5-1.5,1.5h-12.2c-.8,0-1.5-.7-1.5-1.5s.7-1.5,1.5-1.5Z"/>
</svg>