<svg width="24" height="24" viewBox="0 0 24 24" fill="none" xmlns="http://www.w3.org/2000/svg">
<g id="text">
<g id="Vector">
<path d="M13.7157 19.1147L8.09069 4.11468C8.01699 3.9181 7.88505 3.74869 7.7125 3.6291C7.53995 3.50951 7.33501 3.44543 7.12506 3.44543C6.91512 3.44543 6.71018 3.50951 6.53763 3.6291C6.36508 3.74869 6.23313 3.9181 6.15944 4.11468L0.534438 19.1147C0.441404 19.3701 0.452993 19.652 0.566683 19.8989C0.680373 20.1458 0.886968 20.3379 1.14153 20.4333C1.39609 20.5287 1.67802 20.5197 1.926 20.4083C2.17397 20.2969 2.36793 20.0921 2.46569 19.8384L4.16069 15.3187C4.16736 15.3009 4.17933 15.2855 4.195 15.2746C4.21066 15.2637 4.22927 15.2578 4.24834 15.2578H10.0018C10.0209 15.2578 10.0395 15.2637 10.0551 15.2746C10.0708 15.2855 10.0828 15.3009 10.0894 15.3187L11.7844 19.8384C11.8822 20.0921 12.0762 20.2969 12.3241 20.4083C12.5721 20.5197 12.854 20.5287 13.1086 20.4333C13.3632 20.3379 13.5698 20.1458 13.6834 19.8989C13.7971 19.652 13.8087 19.3701 13.7157 19.1147ZM5.00444 13.0678L7.03741 7.64671C7.04415 7.62893 7.05615 7.61361 7.07181 7.60281C7.08747 7.592 7.10604 7.58621 7.12506 7.58621C7.14409 7.58621 7.16266 7.592 7.17832 7.60281C7.19397 7.61361 7.20597 7.62893 7.21272 7.64671L9.24569 13.0687C9.25098 13.0829 9.25277 13.0982 9.2509 13.1132C9.24903 13.1282 9.24355 13.1425 9.23494 13.1549C9.22633 13.1674 9.21483 13.1775 9.20144 13.1846C9.18805 13.1916 9.17316 13.1953 9.15803 13.1953H5.09209C5.07697 13.1953 5.06208 13.1916 5.04868 13.1846C5.03529 13.1775 5.0238 13.1674 5.01519 13.1549C5.00658 13.1425 5.0011 13.1282 4.99923 13.1132C4.99736 13.0982 4.99914 13.0829 5.00444 13.0687V13.0678Z" fill="#B553FF"/>
<path d="M18.7862 7.94531C16.8305 7.93125 15.0793 9.06421 14.333 10.8234C14.2261 11.0752 14.2236 11.3591 14.326 11.6127C14.4284 11.8663 14.6274 12.0689 14.8791 12.1758C15.1309 12.2827 15.4148 12.2852 15.6684 12.1828C15.922 12.0804 16.1246 11.8814 16.2315 11.6297C16.6477 10.6505 17.6269 10.0153 18.7308 10.0078C20.2458 9.9975 21.4688 11.25 21.4688 12.7664C21.4688 12.7847 21.4617 12.8022 21.4491 12.8153C21.4364 12.8284 21.4191 12.8361 21.4008 12.8367C20.3733 12.8653 19.1546 12.9337 18.0671 13.0617C15.5007 13.3636 13.9688 14.7628 13.9688 16.8047C13.9688 17.8917 14.3794 18.8672 15.1252 19.5553C15.8251 20.1998 16.7813 20.5547 17.8126 20.5547C19.2657 20.5547 20.5168 20.1797 21.466 19.4662H21.4688C21.4682 19.6017 21.4943 19.7359 21.5456 19.8612C21.5969 19.9866 21.6724 20.1006 21.7677 20.1968C21.8631 20.2929 21.9764 20.3694 22.1013 20.4217C22.2262 20.4741 22.3602 20.5014 22.4956 20.5019C22.631 20.5025 22.7653 20.4764 22.8906 20.4252C23.0159 20.3739 23.1299 20.2984 23.2261 20.2031C23.3223 20.1077 23.3987 19.9943 23.4511 19.8695C23.5035 19.7446 23.5307 19.6106 23.5313 19.4752V12.772C23.5313 10.1386 21.4219 7.96453 18.7862 7.94531ZM17.8126 18.4922C16.9908 18.4922 16.0313 18.0502 16.0313 16.8047C16.0313 16.3045 16.2108 15.9544 16.614 15.6689C17.0063 15.3909 17.6077 15.1927 18.308 15.1102C19.298 14.9934 20.409 14.9292 21.3615 14.9006C21.3742 14.9006 21.3868 14.9032 21.3985 14.9082C21.4102 14.9132 21.4207 14.9205 21.4295 14.9297C21.4382 14.9389 21.445 14.9498 21.4495 14.9617C21.4539 14.9737 21.4559 14.9864 21.4552 14.9991C21.3282 17.3484 20.131 18.4922 17.8126 18.4922Z" fill="#B553FF"/>
</g>
</g>
</svg>
